<?xml version="1.0" encoding="utf-8"?>
<!-- Generator: Adobe Illustrator 16.0.0, SVG Export Plug-In . SVG Version: 6.00 Build 0)  -->
<!DOCTYPE svg PUBLIC "-//W3C//DTD SVG 1.1//EN" "http://www.w3.org/Graphics/SVG/1.1/DTD/svg11.dtd">
<svg version="1.1" id="Layer_1" xmlns="http://www.w3.org/2000/svg" xmlns:xlink="http://www.w3.org/1999/xlink" x="0px" y="0px"
	 width="675px" height="312px" viewBox="0 0 675 312" enable-background="new 0 0 675 312" xml:space="preserve">
<path fill="none" stroke="#4A9ACA" stroke-width="5" stroke-miterlimit="10" d="M238.5,175.5c0,6.627-5.373,12-12,12h-212
	c-6.627,0-12-5.373-12-12v-49c0-6.627,5.373-12,12-12h212c6.627,0,12,5.373,12,12V175.5z"/>
<path fill="none" stroke="#4A9ACA" stroke-width="5" stroke-miterlimit="10" d="M466.5,64.5c0,6.627-5.373,12-12,12h-237
	c-6.627,0-12-5.373-12-12v-50c0-6.627,5.373-12,12-12h237c6.627,0,12,5.373,12,12V64.5z"/>
<path fill="none" stroke="#4A9ACA" stroke-width="5" stroke-miterlimit="10" d="M672.5,177.5c0,6.627-5.373,12-12,12h-212
	c-6.627,0-12-5.373-12-12v-49c0-6.627,5.373-12,12-12h212c6.627,0,12,5.373,12,12V177.5z"/>
<path fill="none" stroke="#FFCA00" stroke-width="5" stroke-miterlimit="10" d="M466.5,297.5c0,6.627-5.373,12-12,12h-237
	c-6.627,0-12-5.373-12-12v-55c0-6.627,5.373-12,12-12h237c6.627,0,12,5.373,12,12V297.5z"/>
<text transform="matrix(1 0 0 1 266.7754 289.5)" fill="#FFCA00" font-family="'OpenSans-Bold'" font-size="15">TRY IT OUT IN Restlet Client</text>
<path fill="none" stroke="#4A9ACA" stroke-width="5" stroke-miterlimit="10" stroke-dasharray="6,9" d="M120.5,116V44.5
	c0-6.627,5.373-12,12-12H206"/>
<path fill="none" stroke="#4A9ACA" stroke-width="5" stroke-miterlimit="10" stroke-dasharray="6,9" d="M554.5,117V44.5
	c0-6.627-4.873-12-11.5-12h-74"/>
<path fill="none" stroke="#4A9ACA" stroke-width="5" stroke-miterlimit="10" stroke-dasharray="6,9" d="M120.5,189v86
	c0,6.627,5.373,12.5,12,12.5H206"/>
<path fill="none" stroke="#4A9ACA" stroke-width="5" stroke-miterlimit="10" stroke-dasharray="6,9" d="M554.5,189v86
	c0,6.627-4.873,12.5-11.5,12.5h-74"/>
<text transform="matrix(1 0 0 1 59.4531 172.5)" fill="#2A557C" font-family="'OpenSans-Bold'" font-size="15">GENERATE CODE</text>
<text transform="matrix(1 0 0 1 451.7969 172.5)" fill="#2A557C" font-family="'OpenSans-Bold'" font-size="15">publish documentation</text>
<text transform="matrix(1 0 0 1 293.791 59.5005)" fill="#2A557C" font-family="'OpenSans-Bold'" font-size="15">DESIGN API</text>
<g>
	<g>
		<g id="Layer_2_9_">
			<g>
				<path fill="#FFCA00" d="M335.795,263.122c-0.208,0.052-0.421,0.098-0.631,0.137c-0.552,0.103-0.916,0.633-0.813,1.184
					c0.05,0.271,0.204,0.497,0.413,0.646c0.216,0.151,0.49,0.22,0.771,0.168c0.25-0.047,0.503-0.102,0.752-0.163
					c0.544-0.136,0.875-0.687,0.739-1.23C336.891,263.317,336.339,262.986,335.795,263.122z"/>
				<path fill="#FFCA00" d="M343.305,249.512c0.071,0.214,0.207,0.389,0.378,0.51c0.255,0.18,0.587,0.239,0.905,0.134
					c0.532-0.177,0.82-0.75,0.645-1.282c-0.08-0.243-0.169-0.486-0.264-0.724c-0.209-0.521-0.8-0.773-1.32-0.565
					s-0.774,0.799-0.565,1.32C343.162,249.103,343.237,249.308,343.305,249.512z"/>
				<path fill="#FFCA00" d="M339.095,261.672c-0.179,0.118-0.364,0.233-0.55,0.34c-0.486,0.281-0.652,0.901-0.373,1.388
					c0.076,0.132,0.178,0.239,0.295,0.322c0.312,0.221,0.738,0.253,1.093,0.049c0.221-0.127,0.44-0.263,0.654-0.404
					c0.468-0.309,0.597-0.938,0.288-1.406C340.192,261.491,339.562,261.363,339.095,261.672z"/>
				<path fill="#FFCA00" d="M345.863,252.348c-0.021-0.561-0.494-0.997-1.055-0.975c-0.56,0.021-0.996,0.493-0.975,1.055
					c0.009,0.213,0.012,0.431,0.006,0.645c-0.008,0.352,0.164,0.665,0.432,0.854c0.159,0.111,0.353,0.18,0.562,0.185
					c0.561,0.012,1.025-0.432,1.037-0.993C345.876,252.861,345.874,252.603,345.863,252.348z"/>
				<path fill="#FFCA00" d="M343.139,259.001c-0.449-0.337-1.086-0.246-1.422,0.202c-0.129,0.173-0.265,0.342-0.403,0.505
					c-0.364,0.427-0.312,1.068,0.114,1.433c0.024,0.02,0.049,0.039,0.074,0.057c0.425,0.299,1.014,0.23,1.357-0.172
					c0.166-0.195,0.328-0.397,0.481-0.604C343.678,259.974,343.586,259.337,343.139,259.001z"/>
				<path fill="#FFCA00" d="M344.631,255.33c-0.535-0.168-1.104,0.13-1.272,0.665c-0.063,0.205-0.135,0.409-0.212,0.611
					c-0.168,0.442-0.007,0.93,0.363,1.19c0.067,0.049,0.143,0.089,0.225,0.119c0.523,0.2,1.109-0.062,1.31-0.587
					c0.092-0.238,0.176-0.483,0.253-0.727C345.464,256.067,345.166,255.498,344.631,255.33z"/>
				<path fill="#FFCA00" d="M331.364,263.268c-0.907-0.163-1.778-0.44-2.604-0.827c-0.01-0.006-0.019-0.011-0.028-0.017
					c-0.194-0.091-0.389-0.189-0.577-0.292c-0.001,0-0.002-0.001-0.003-0.001c-0.346-0.19-0.683-0.401-1.011-0.632
					c-4.776-3.364-5.925-9.988-2.56-14.766c0.731-1.038,1.617-1.904,2.604-2.591c0.012-0.008,0.024-0.017,0.036-0.025
					c3.479-2.396,8.202-2.559,11.896-0.095l-0.793,1.146c-0.221,0.319-0.084,0.552,0.302,0.518l3.446-0.309
					c0.387-0.035,0.617-0.369,0.513-0.742l-0.925-3.335c-0.104-0.374-0.369-0.418-0.59-0.1l-0.795,1.149
					c-2.711-1.819-5.962-2.514-9.189-1.954c-0.324,0.056-0.645,0.125-0.961,0.205c-0.002,0.001-0.005,0.001-0.006,0.002
					c-0.014,0.003-0.025,0.007-0.037,0.01c-2.783,0.715-5.211,2.338-6.943,4.653c-0.014,0.017-0.029,0.034-0.043,0.053
					c-0.058,0.078-0.115,0.157-0.172,0.236c-0.091,0.131-0.181,0.264-0.268,0.397c-0.011,0.016-0.019,0.032-0.028,0.049
					c-1.43,2.215-2.119,4.776-2.001,7.384c0,0.009,0,0.017,0,0.025c0.012,0.256,0.031,0.514,0.059,0.768
					c0.002,0.017,0.006,0.032,0.009,0.049c0.027,0.255,0.063,0.512,0.108,0.768c0.453,2.613,1.686,4.966,3.533,6.796
					c0.004,0.004,0.009,0.009,0.014,0.013c0.001,0.002,0.003,0.004,0.004,0.005c0.497,0.489,1.037,0.942,1.618,1.353
					c1.521,1.071,3.215,1.78,5.034,2.106c0.553,0.1,1.08-0.269,1.18-0.819C332.283,263.895,331.917,263.366,331.364,263.268z"/>
				<path fill="#FFCA00" d="M332.621,244.632c-0.455,0-0.822,0.369-0.822,0.822v8.186l7.486,3.869
					c0.12,0.062,0.249,0.092,0.376,0.092c0.297,0,0.585-0.161,0.73-0.444c0.208-0.403,0.051-0.898-0.353-1.106l-6.598-3.411v-7.185
					C333.441,245.001,333.074,244.632,332.621,244.632z"/>
			</g>
		</g>
	</g>
</g>
<g>
	<g>
		<g id="Pencil_9_">
			<g>
				<path fill="#2A557C" d="M365.454,13.385c-0.68-0.682-1.588-1.057-2.55-1.057c-0.964,0-1.87,0.374-2.55,1.056l-10.85,10.787
					c-0.064,0.063-0.113,0.14-0.146,0.226l-2.454,6.752c-0.08,0.218-0.027,0.464,0.131,0.633c0.118,0.124,0.279,0.191,0.447,0.191
					c0.06,0,0.119-0.008,0.179-0.027l6.108-1.874c0.095-0.029,0.183-0.082,0.254-0.152l11.431-11.431
					c0.683-0.682,1.058-1.588,1.058-2.553C366.513,14.973,366.138,14.066,365.454,13.385z M353.063,29.004l-2.286,0.702
					c-0.133-0.391-0.341-0.737-0.623-1.021c-0.246-0.245-0.531-0.435-0.833-0.589l1.047-2.876h1.412v1.228
					c0,0.339,0.273,0.614,0.614,0.614h1.083L353.063,29.004z M362.101,20.106l-7.48,7.48l0.216-1.011
					c0.038-0.182-0.008-0.37-0.125-0.514c-0.116-0.145-0.291-0.228-0.476-0.228h-1.229v-1.228c0-0.338-0.274-0.614-0.612-0.614
					h-0.97l7.3-7.259l0.009,0.006c0.449-0.449,1.047-0.697,1.683-0.697s1.234,0.248,1.684,0.697
					c0.449,0.451,0.698,1.048,0.698,1.685C362.798,19.059,362.551,19.656,362.101,20.106z M364.586,17.62l-0.571,0.573
					c-0.056-0.877-0.419-1.695-1.046-2.322c-0.626-0.627-1.445-0.991-2.324-1.046l0.575-0.57l0.001-0.002
					c0.448-0.45,1.047-0.697,1.684-0.697c0.636,0,1.234,0.247,1.682,0.697c0.451,0.451,0.699,1.048,0.699,1.684
					C365.285,16.573,365.038,17.171,364.586,17.62z M360.554,17.418l-6.138,6.139c-0.24,0.24-0.24,0.628,0,0.868
					c0.118,0.12,0.275,0.18,0.434,0.18c0.156,0,0.313-0.06,0.434-0.18l6.14-6.139c0.238-0.24,0.238-0.628,0-0.869
					C361.182,17.179,360.794,17.179,360.554,17.418z"/>
			</g>
		</g>
	</g>
</g>
<line fill="none" stroke="#2A557C" stroke-miterlimit="10" stroke-dasharray="6,3" x1="340.479" y1="31.622" x2="311" y2="31.622"/>
<g>
	<g>
		<g>
			<path fill="#2A557C" d="M563.876,135.054c-0.258-1.535-1.018-2.938-2.182-4.002c-1.292-1.184-2.973-1.834-4.723-1.834
				c-1.353,0-2.67,0.388-3.798,1.118c-0.94,0.606-1.721,1.428-2.272,2.391c-0.237-0.044-0.487-0.069-0.734-0.069
				c-2.113,0-3.833,1.721-3.833,3.832c0,0.274,0.029,0.537,0.078,0.796c-1.365,0.995-2.196,2.596-2.196,4.301
				c0,1.377,0.512,2.714,1.446,3.772c0.961,1.084,2.228,1.725,3.58,1.801c0.015,0,0.023,0,0.039,0h4.274
				c0.373,0,0.672-0.3,0.672-0.672c0-0.373-0.299-0.671-0.672-0.671h-4.255c-2.032-0.124-3.742-2.06-3.742-4.235
				c0-1.407,0.756-2.719,1.973-3.431c0.284-0.164,0.403-0.507,0.293-0.814c-0.099-0.269-0.149-0.553-0.149-0.855
				c0-1.371,1.119-2.49,2.492-2.49c0.292,0,0.581,0.049,0.851,0.147c0.326,0.12,0.689-0.028,0.84-0.342
				c0.93-1.974,2.937-3.246,5.12-3.246c2.933,0,5.353,2.197,5.632,5.11c0.029,0.303,0.258,0.547,0.557,0.597
				c2.213,0.377,3.883,2.42,3.883,4.753c0,2.47-1.944,4.618-4.341,4.801h-3.664c-0.372,0-0.671,0.298-0.671,0.671
				s0.299,0.672,0.671,0.672h3.688c0.016,0,0.031,0,0.051,0c1.516-0.109,2.933-0.806,3.986-1.969
				c1.049-1.153,1.621-2.635,1.621-4.175C568.386,138.221,566.481,135.739,563.876,135.054z"/>
			<path fill="#2A557C" d="M560.332,142.223c0.264-0.265,0.264-0.687,0-0.95l-3.555-3.554c-0.124-0.126-0.297-0.199-0.472-0.199
				s-0.348,0.068-0.473,0.199l-3.554,3.554c-0.264,0.264-0.264,0.686,0,0.95c0.129,0.128,0.303,0.198,0.473,0.198
				c0.168,0,0.343-0.065,0.471-0.198l2.412-2.411v11.081c0,0.371,0.298,0.67,0.671,0.67s0.672-0.299,0.672-0.67v-11.081l2.41,2.411
				C559.646,142.485,560.069,142.485,560.332,142.223z"/>
		</g>
	</g>
</g>
<g>
	<g>
		<g>
			<path fill="#2A557C" d="M122.838,130.145l-0.938-0.257c-0.12-0.04-0.239-0.027-0.354,0.038c-0.116,0.065-0.194,0.163-0.234,0.295
				l-5.636,19.505c-0.04,0.131-0.027,0.254,0.038,0.37c0.065,0.115,0.163,0.193,0.294,0.234l0.938,0.257
				c0.121,0.04,0.239,0.027,0.354-0.038c0.116-0.065,0.194-0.163,0.234-0.294l5.636-19.506c0.04-0.132,0.028-0.255-0.037-0.371
				C123.066,130.263,122.969,130.185,122.838,130.145z"/>
			<path fill="#2A557C" d="M114.393,133.952c0-0.132-0.051-0.247-0.151-0.348l-0.756-0.756c-0.101-0.101-0.216-0.151-0.348-0.151
				c-0.131,0-0.247,0.051-0.348,0.151l-7.04,7.041c-0.102,0.101-0.151,0.217-0.151,0.348s0.05,0.246,0.151,0.348l7.04,7.04
				c0.101,0.102,0.217,0.151,0.348,0.151c0.132,0,0.247-0.05,0.348-0.151l0.756-0.755c0.101-0.101,0.151-0.217,0.151-0.348
				s-0.051-0.247-0.151-0.348l-5.938-5.938l5.938-5.938C114.342,134.198,114.393,134.083,114.393,133.952z"/>
			<path fill="#2A557C" d="M133.097,139.89l-7.041-7.041c-0.101-0.101-0.216-0.151-0.347-0.151c-0.132,0-0.247,0.051-0.349,0.151
				l-0.755,0.756c-0.101,0.101-0.15,0.216-0.15,0.347c0,0.132,0.05,0.247,0.15,0.349l5.938,5.938l-5.938,5.938
				c-0.101,0.101-0.15,0.217-0.15,0.348c0,0.132,0.05,0.247,0.15,0.348l0.755,0.755c0.102,0.102,0.217,0.151,0.349,0.151
				c0.131,0,0.246-0.05,0.347-0.151l7.041-7.04c0.101-0.101,0.151-0.217,0.151-0.349C133.248,140.105,133.197,139.99,133.097,139.89
				z"/>
		</g>
	</g>
</g>
</svg>
