<?xml version="1.0" encoding="utf-8"?>
<!-- Generator: Adobe Illustrator 16.0.0, SVG Export Plug-In . SVG Version: 6.00 Build 0)  -->
<!DOCTYPE svg PUBLIC "-//W3C//DTD SVG 1.1//EN" "http://www.w3.org/Graphics/SVG/1.1/DTD/svg11.dtd">
<svg version="1.1" id="Layer_1" xmlns="http://www.w3.org/2000/svg" xmlns:xlink="http://www.w3.org/1999/xlink" x="0px" y="0px"
	 width="709.511px" height="267.189px" viewBox="0 0 709.511 267.189" enable-background="new 0 0 709.511 267.189"
	 xml:space="preserve">
<g>
	<g>
		<path fill="#4A9ACA" d="M616.695,63.658V24.373c0-5.137-3.832-9.395-8.788-10.063c-0.55-4.349-3.707-7.974-8.051-9.06
			c-3.146-0.786-6.387-1.185-9.627-1.185h-1.276c-1.874,0-3.764,0.135-5.615,0.399C572.585,6,564.477,15.35,564.477,26.211v37.445
			c-6.154,3.167-10.154,9.513-10.154,16.742v13.598h72.526V80.398C626.849,73.171,622.849,66.825,616.695,63.658z M583.75,7.336
			c1.715-0.246,3.466-0.37,5.203-0.37h1.276c3.004,0,6.007,0.37,8.925,1.098c3.496,0.875,5.937,4.002,5.937,7.605v1.45h1.45
			c4,0,7.254,3.253,7.254,7.253v38.087c-0.559-0.18-1.129-0.338-1.713-0.468l-11.343-2.521v-3.584
			c4.384-3.164,7.253-8.301,7.253-14.109V22.921h-2.9v0.726l-1.261,0.945c-2.305,1.729-5.16,2.681-8.043,2.681h-10.651
			c-3.271,0-6.396,0.958-9.056,2.74v-1.29h-2.901v13.054c0,5.808,2.87,10.946,7.253,14.11v3.584l-11.342,2.52
			c-0.584,0.129-1.153,0.289-1.712,0.469V26.211C567.378,16.783,574.416,8.668,583.75,7.336z M581.67,64.975
			c1.438,4.794,3.088,9.56,4.896,14.25l-5.714-5.714l-8.34,2.383c1.825-4.86,4.773-9.185,8.625-12.69L581.67,64.975z
			 M576.081,41.777v-8.062l0,0c2.479-2.279,5.668-3.541,9.056-3.541h10.651c3.31,0,6.586-1.044,9.303-2.932v14.535
			c0,7.999-6.507,14.505-14.504,14.505C582.586,56.283,576.081,49.776,576.081,41.777z M584.451,64.142l-1.117-3.721v-2.84
			c2.21,1.018,4.662,1.602,7.253,1.602c2.59,0,5.041-0.584,7.252-1.602v2.84l-1.118,3.721c-1.759,5.869-3.819,11.703-6.134,17.388
			C588.269,75.845,586.209,70.011,584.451,64.142z M599.5,64.975l0.53-1.771c3.854,3.504,6.803,7.829,8.627,12.689l-8.341-2.383
			l-5.712,5.714C596.414,74.535,598.063,69.77,599.5,64.975z M612.343,91.095v-5.802h-2.9v5.802h-37.714v-5.802h-2.899v5.802
			h-11.605V80.398c0-7.535,5.138-13.94,12.494-15.574l7.314-1.625c-3.8,4.096-6.595,9.007-8.147,14.443l-0.719,2.51l11.844-3.384
			l9.353,9.353l1.224,2.853l1.223-2.853l9.353-9.353l11.843,3.384l-0.718-2.51c-1.554-5.437-4.349-10.347-8.147-14.443l7.312,1.625
			c7.357,1.633,12.496,8.039,12.496,15.574v10.697H612.343z"/>
	</g>
</g>
<g>
	<g>
		<g>
			<path fill="#4A9ACA" d="M112.84,126.893c-2.085-1.104-5.487-3.113-7.117-4.539v-3.864c5.547-3.308,9.354-9.021,10.649-15.981
				c3.567-1.153,6.083-4.465,6.083-7.164c0-2.953-2.126-5.024-5.568-5.601v-2.729c0.029-0.917,0.232-11.963-6.734-19.212
				c-3.883-4.039-9.185-6.088-15.76-6.088c-6.253,0-11.363,1.85-15.187,5.497c-2.493,2.379-4.387,5.47-5.644,9.205
				c-2.335-0.743-4.911-1.121-7.69-1.121c-2.783,0-5.362,0.379-7.694,1.121c-3.203-9.497-10.538-14.702-20.827-14.702
				c-6.575,0-11.878,2.049-15.76,6.088c-6.967,7.251-6.763,18.297-6.734,19.212v2.729c-3.441,0.576-5.568,2.647-5.568,5.602
				c0,2.698,2.515,6.01,6.082,7.164c1.295,6.963,5.105,12.679,10.649,15.981v3.863c-1.629,1.424-5.031,3.435-7.118,4.539
				C0.278,132.883,0.002,144.103,0,144.59v6.686h31.133c-2.514,3.693-2.609,6.694-2.613,6.857v6.724h74.703v-6.698
				c0-0.149-0.03-1.514-0.762-3.462c-0.438-1.164-1.043-2.313-1.796-3.421h31.078v-6.696l0,0
				C131.742,144.103,131.466,132.882,112.84,126.893z M114.846,93.665c0.828,0,3.528,0.121,3.528,1.681
				c0,1.224-2.049,3.197-4.066,3.463l-1.548,0.204l-0.208,1.548c-0.902,6.72-4.478,12.157-9.818,14.926
				c-2.483,1.304-5.29,1.966-8.34,1.966c-2.382,0-4.595-0.398-6.594-1.18c0.012-0.06,0.025-0.116,0.036-0.177
				c3.577-1.147,6.099-4.466,6.099-7.169c0-2.953-2.126-5.025-5.568-5.601v-2.731c0.022-0.708,0.147-7.967-3.394-14.576
				c1.736-1.1,3.438-2.42,5.088-3.95c3.398,1.86,12.557,6.346,22.745,6.896l-0.001,4.7H114.846z M65.872,131.033
				c-3.05,0-5.857-0.661-8.348-1.97c-2.952-1.536-5.407-3.918-7.114-6.91c-0.896-1.526-1.592-3.225-2.066-5.049l-0.015-0.053
				c-0.251-0.869-0.455-1.832-0.621-2.941l-0.228-1.519l-1.523-0.201c-2.017-0.267-4.066-2.239-4.066-3.464
				c0-1.559,2.7-1.681,3.528-1.681h2.041v-3.953c2.814-0.518,8.198-2.196,14.081-7.644c3.398,1.86,12.558,6.346,22.746,6.896
				l-0.001,4.7h2.041c0.828,0,3.528,0.122,3.528,1.681c0,1.225-2.049,3.197-4.066,3.464l-1.523,0.201l-0.228,1.52
				c-0.166,1.108-0.369,2.07-0.621,2.94l-0.015,0.053c-0.474,1.824-1.169,3.522-2.079,5.071c-1.694,2.97-4.149,5.352-7.108,6.892
				C71.729,130.372,68.922,131.033,65.872,131.033z M73.121,133.961v2.026c-1.061,1.05-3.829,3.41-7.249,3.41
				c-3.434,0-6.191-2.357-7.249-3.408v-2.029c2.267,0.767,4.693,1.153,7.249,1.153C68.429,135.114,70.856,134.727,73.121,133.961z
				 M30.103,120.379c2.266,0.767,4.693,1.153,7.249,1.153c2.742,0,5.32-0.444,7.687-1.313c0.283,0.797,0.603,1.568,0.959,2.312
				c-1.641,1.134-5.206,3.286-8.646,3.286c-3.434,0-6.191-2.358-7.249-3.409V120.379z M86.705,120.219
				c2.368,0.869,4.945,1.313,7.687,1.313c2.557,0,4.985-0.387,7.249-1.152v2.027c-1.061,1.049-3.828,3.41-7.249,3.41
				c-3.441,0-7.007-2.153-8.646-3.286C86.103,121.786,86.423,121.014,86.705,120.219z M94.393,65.795
				c5.412,0,9.719,1.621,12.8,4.817c4.299,4.46,5.315,10.986,5.549,14.257c-11.452-0.722-21.815-7.005-21.924-7.071l-1.373-0.846
				l-1.14,1.141c-1.811,1.81-3.685,3.321-5.59,4.519c-1.527-1.869-3.331-3.396-5.391-4.562
				C79.923,69.918,85.658,65.795,94.393,65.795z M65.872,79.377c3.108-0.001,5.769,0.511,8.132,1.561
				c2.627,1.173,4.806,3.022,6.467,5.487c2.794,4.2,3.55,9.268,3.749,12.025c-11.451-0.723-21.814-7.004-21.922-7.071l-1.373-0.845
				l-1.14,1.141c-5.055,5.055-9.732,6.82-12.308,7.437c0.112-2.526,0.723-8.094,3.79-12.677c1.721-2.554,3.833-4.351,6.47-5.495
				C60.103,79.888,62.764,79.377,65.872,79.377z M24.551,70.613c3.082-3.196,7.389-4.816,12.801-4.816
				c8.729,0,14.464,4.118,17.065,12.241c-2.044,1.147-3.847,2.678-5.389,4.573c-1.905-1.197-3.779-2.708-5.588-4.518l-1.14-1.14
				l-1.373,0.845c-0.109,0.067-10.443,6.352-21.924,7.071C19.236,81.597,20.252,75.072,24.551,70.613z M19.193,100.56l-0.208-1.548
				l-1.548-0.204c-2.017-0.266-4.066-2.239-4.066-3.463c0-1.56,2.7-1.681,3.527-1.681h2.041v-4.701
				c10.188-0.551,19.346-5.036,22.744-6.896c1.649,1.529,3.35,2.848,5.083,3.946c-3.554,6.599-3.412,13.855-3.388,14.583v2.729
				c-3.441,0.575-5.568,2.646-5.568,5.601c0,2.702,2.522,6.021,6.099,7.169c0.012,0.06,0.024,0.117,0.037,0.177
				c-1.999,0.781-4.212,1.179-6.594,1.179c-3.05,0-5.857-0.661-8.351-1.971C23.67,112.717,20.095,107.28,19.193,100.56z
				 M4.082,147.193v-2.592c0-0.02,0.09-2.049,1.874-4.669c1.838-2.701,5.822-6.492,14.359-9.205l0.17-0.055l0.158-0.083
				c0.553-0.289,4.641-2.455,7.344-4.572c1.811,1.596,5.142,3.882,9.365,3.882c4.375,0,8.585-2.398,10.718-3.838
				c1.737,2.446,3.937,4.487,6.472,6.005v3.868c-1.629,1.426-5.035,3.438-7.121,4.541c-5.183,1.692-9.42,3.95-12.614,6.719
				L4.082,147.193L4.082,147.193z M32.601,158.244v-0.008c0-0.001,0-0.003,0-0.005L32.601,158.244z M99.142,160.775L99.142,160.775
				H32.602v-2.559c0.02-0.32,0.324-3.727,4.372-7.485c2.849-2.641,6.842-4.803,11.87-6.427l0.165-0.053l0.155-0.081
				c0.553-0.289,4.64-2.454,7.343-4.572c1.811,1.596,5.142,3.882,9.365,3.882s7.554-2.286,9.365-3.882
				c2.704,2.118,6.791,4.282,7.344,4.572l0.159,0.084l0.171,0.054c5.075,1.609,9.081,3.768,11.905,6.416l0.012,0.011
				c4.073,3.761,4.302,7.203,4.314,7.465V160.775L99.142,160.775z M127.663,147.195H96.998c-3.182-2.783-7.442-5.041-12.679-6.722
				c-2.087-1.104-5.488-3.114-7.117-4.538v-3.869c2.542-1.522,4.742-3.565,6.473-6.004c2.133,1.439,6.342,3.836,10.717,3.836
				c4.223,0,7.554-2.285,9.365-3.882c2.703,2.118,6.791,4.283,7.344,4.573l0.158,0.083l0.17,0.055
				c15.632,4.969,16.212,13.394,16.233,13.89V147.195z"/>
		</g>
	</g>
</g>
<g>
	<g>
		<rect x="253.265" y="174.308" fill="#FFCA00" width="122.849" height="7.924"/>
		<rect x="253.265" y="55.462" fill="#FFCA00" width="80.273" height="7.923"/>
		<rect x="253.265" y="150.539" fill="#FFCA00" width="122.849" height="7.924"/>
		<rect x="253.265" y="31.692" fill="#FFCA00" width="80.273" height="7.923"/>
		<path opacity="0.7" fill="#FFCA00" d="M362.27,0h-3.963H245.341c-8.716,0-15.846,7.131-15.846,15.847v182.231
			c0,8.715,7.13,15.846,15.846,15.846h148.62c8.716,0,15.847-7.131,15.847-15.846V59.424v-3.962L362.27,0z M362.27,11.885
			l37.238,43.577h-29.315c-3.962,0-7.923-3.961-7.923-7.923V11.885z M401.885,198.078c0,3.961-3.17,7.924-7.924,7.924h-148.62
			c-3.961,0-7.923-3.17-7.923-7.924V15.847c0-3.962,3.169-7.924,7.923-7.924h109.005v39.616c0,8.716,7.13,15.846,15.846,15.846
			h31.692V198.078z"/>
	</g>
</g>
<g opacity="0.8">
	<path fill="#4A9ACA" d="M661.596,157.179c-1.476-2.16-3.533-3.66-5.949-4.338c-0.029-0.008-0.059-0.015-0.089-0.02l-10.224-1.91
		l-3.44-4.558c0.182-0.207,0.36-0.419,0.537-0.638c3.03-3.76,4.769-8.738,4.769-13.654v-4.424
		c3.232-10.253,2.037-18.905,0.987-21.29c-0.002-0.003-0.003-0.006-0.005-0.01c-0.009-0.021-0.02-0.041-0.03-0.06
		c-0.006-0.011-0.011-0.023-0.018-0.033c-0.01-0.017-0.021-0.034-0.032-0.05c-0.008-0.013-0.016-0.026-0.024-0.038
		s-0.02-0.024-0.029-0.037c-0.012-0.015-0.023-0.029-0.035-0.043c-0.008-0.01-0.018-0.018-0.026-0.027
		c-0.015-0.016-0.029-0.031-0.045-0.046c-0.009-0.007-0.017-0.014-0.024-0.021c-0.017-0.015-0.034-0.029-0.053-0.042
		c-0.009-0.007-0.019-0.014-0.028-0.021c-0.017-0.012-0.034-0.024-0.051-0.035c-0.014-0.008-0.027-0.015-0.041-0.022
		c-0.015-0.008-0.029-0.017-0.045-0.024c-0.017-0.009-0.034-0.016-0.051-0.023c-0.013-0.005-0.026-0.011-0.039-0.017
		c-0.02-0.007-0.039-0.013-0.059-0.02c-0.012-0.004-0.022-0.008-0.035-0.011c-0.02-0.005-0.039-0.009-0.059-0.014
		c-0.014-0.002-0.026-0.006-0.039-0.008c-0.019-0.003-0.036-0.005-0.053-0.006c-0.017-0.002-0.033-0.005-0.05-0.006
		c-0.015-0.001-0.029-0.001-0.044-0.001c-0.02-0.001-0.04-0.001-0.061-0.001c-0.012,0.001-0.024,0.001-0.036,0.002
		c-0.023,0.001-0.045,0.003-0.067,0.006c-0.004,0.001-0.009,0.001-0.012,0.001c-2.772,0.396-6.121-0.276-9.666-0.988
		c-5.93-1.19-12.059-2.418-16.832,1.006c-0.076-0.019-0.155-0.028-0.237-0.028c-4.876,0-8.282,4.046-8.282,9.84
		c0,4.513,1.903,12.948,2.167,14.09v2.39c0,4.916,1.744,9.895,4.784,13.66c0.176,0.217,0.354,0.428,0.535,0.635l-3.445,4.562
		l-10.224,1.91c-0.03,0.006-0.06,0.014-0.089,0.021c-2.416,0.678-4.474,2.178-5.949,4.338c-1.349,1.978-2.093,4.363-2.093,6.72
		v6.034c0,2.163,1.945,3.924,4.335,3.924h57.253c2.391,0,4.335-1.761,4.335-3.924v-6.034
		C663.689,161.542,662.945,159.157,661.596,157.179z M616.159,153.003l6.104,9.008c-2.332-1.915-4.996-4.689-7.74-8.701
		L616.159,153.003z M630.727,155.868l-4.274-4.749c1.387,0.473,2.824,0.719,4.286,0.719c1.449,0,2.877-0.242,4.254-0.709
		L630.727,155.868z M630.727,158.736l2.604,2.098c-1.32,0.692-2.258,0.951-2.604,1.031c-0.351-0.081-1.288-0.34-2.604-1.031
		L630.727,158.736z M625.748,162.749l0.642-0.518c2.463,1.444,4.117,1.696,4.192,1.707c0.048,0.007,0.097,0.011,0.146,0.011
		c0.05,0,0.098-0.004,0.146-0.011c0.074-0.011,1.729-0.263,4.192-1.707l0.642,0.518c0.397,0.374,0.918,0.579,1.461,0.579
		c0.067,0,0.136-0.003,0.203-0.01c0.045-0.004,0.088-0.013,0.131-0.02c-3.381,2.374-5.785,2.858-6.229,2.931l-0.547,0.089
		l-0.546-0.089c-0.443-0.072-2.847-0.557-6.229-2.931c0.044,0.007,0.087,0.016,0.131,0.02c0.068,0.007,0.137,0.01,0.205,0.01
		C624.829,163.328,625.35,163.123,625.748,162.749z M645.295,153.003l1.639,0.307c-2.745,4.012-5.409,6.786-7.741,8.702
		L645.295,153.003z M637.227,161.234c-0.006,0.008-0.019,0.026-0.051,0.029s-0.049-0.013-0.056-0.02
		c-0.025-0.026-0.054-0.051-0.082-0.074l-4.814-3.879l8.343-9.27l2.958,3.918L637.227,161.234z M637.333,126.651
		c-2.038,0-3.816,1.127-4.747,2.792c-0.526-0.371-1.168-0.589-1.859-0.589s-1.331,0.219-1.858,0.589
		c-0.931-1.664-2.709-2.792-4.747-2.792c-2.241,0-4.169,1.362-5,3.303h-2.778c0.274-3.844,2.278-8.587,2.97-10.124
		c7.638-0.902,13.723-0.006,17.516,0.921c3.351,0.819,5.538,1.801,6.306,2.176l2.001,4.761v2.266h-2.803
		C641.502,128.014,639.574,126.651,637.333,126.651z M640.706,132.088c0,1.859-1.513,3.372-3.372,3.372s-3.371-1.513-3.371-3.372
		c0-1.86,1.512-3.373,3.371-3.373S640.706,130.228,640.706,132.088z M624.122,128.715c1.858,0,3.372,1.513,3.372,3.373
		c0,1.859-1.514,3.372-3.372,3.372c-1.859,0-3.372-1.513-3.372-3.372C620.75,130.228,622.262,128.715,624.122,128.715z
		 M614.143,115.572c0-5.371,3.123-7.776,6.219-7.776c0.106,0,0.209-0.016,0.307-0.046c0.307,0.093,0.652,0.044,0.927-0.165
		c4.067-3.089,9.844-1.93,15.429-0.808c2.919,0.586,5.711,1.147,8.286,1.147c0.416,0,0.824-0.017,1.229-0.048
		c0.69,2.439,1.362,8.738-0.561,16.488l-1.087-2.586c-0.091-0.213-0.25-0.391-0.453-0.503c-0.404-0.225-10.111-5.461-25.954-3.424
		c-0.002,0-0.003,0.001-0.006,0.001c-0.021,0.003-0.045,0.008-0.067,0.012c-0.012,0.002-0.023,0.004-0.035,0.007
		c-0.017,0.004-0.033,0.01-0.051,0.015c-0.016,0.004-0.032,0.009-0.047,0.014c-0.006,0.001-0.012,0.005-0.017,0.006
		c-0.075,0.028-0.146,0.064-0.212,0.107c-0.11,0.071-0.206,0.166-0.284,0.278c-0.008,0.012-0.017,0.024-0.024,0.037
		c-0.007,0.012-0.013,0.023-0.02,0.034c-0.011,0.02-0.021,0.038-0.03,0.058c-0.002,0.002-0.003,0.003-0.004,0.006
		c-0.088,0.181-1.4,2.921-2.378,6.217C614.743,121.683,614.143,117.971,614.143,115.572z M616.31,132.053v-0.034h2.377
		c-0.001,0.023-0.002,0.046-0.002,0.069c0,2.998,2.438,5.436,5.437,5.436c2.997,0,5.437-2.438,5.437-5.436
		c0-0.646,0.524-1.17,1.169-1.17c0.646,0,1.171,0.525,1.171,1.17c0,2.998,2.438,5.436,5.436,5.436s5.437-2.438,5.437-5.436
		c0-0.023-0.002-0.046-0.002-0.069h2.367v0.043c0,4.453-1.571,8.959-4.312,12.359c-2.781,3.451-6.362,5.351-10.085,5.351
		c-3.725,0-7.312-1.901-10.102-5.355C617.887,141.011,616.31,136.505,616.31,132.053z M620.888,148.021l8.343,9.27l-4.814,3.879
		c-0.029,0.023-0.057,0.048-0.083,0.074c-0.007,0.007-0.022,0.023-0.055,0.02c-0.032-0.003-0.045-0.021-0.051-0.029l-6.297-9.295
		L620.888,148.021z M606.322,154.841l6.033-1.127c0.028,0.092,0.07,0.18,0.125,0.262c3.481,5.205,7.297,9.143,11.341,11.707
		c3.153,1.998,5.41,2.482,6.026,2.584l0.714,0.116c0.056,0.009,0.11,0.014,0.166,0.014s0.112-0.005,0.167-0.014l0.713-0.116
		c0.616-0.102,2.874-0.586,6.026-2.584c4.045-2.564,7.86-6.502,11.342-11.707c0.056-0.082,0.097-0.17,0.125-0.262l6.033,1.127
		c1.063,0.305,2,0.797,2.808,1.422l-3.344,3.343c-1.858,1.858-2.882,4.33-2.882,6.958v5.229h-41.977v-5.229
		c0-2.628-1.023-5.1-2.882-6.958l-3.343-3.343C604.322,155.638,605.258,155.146,606.322,154.841z M599.831,169.933v-6.034
		c0-2.079,0.751-4.382,2.212-6.188l3.354,3.354c1.469,1.469,2.277,3.422,2.277,5.498v5.229h-5.573
		C600.848,171.792,599.831,170.958,599.831,169.933z M661.625,169.933c0,1.025-1.02,1.859-2.271,1.859h-5.574v-5.229
		c0-2.076,0.81-4.029,2.277-5.498l3.355-3.354c1.461,1.806,2.213,4.108,2.213,6.188V169.933L661.625,169.933z"/>
</g>
<g opacity="0.6">
	<g>
		<path fill="#4A9ACA" d="M704.584,81.972c1.201-1.588,1.858-3.509,1.858-5.524c0-1.248-0.256-2.487-0.744-3.629
			c1.782-1.729,2.79-4.092,2.79-6.599c0-4.323-3.021-8.031-7.16-8.97v-2.281c0-9.023-7.342-16.365-16.365-16.365
			s-16.365,7.342-16.365,16.365v2.281c-4.139,0.939-7.159,4.646-7.159,8.97c0,2.507,1.008,4.87,2.79,6.599
			c-0.488,1.142-0.744,2.381-0.744,3.629c0,2.015,0.657,3.936,1.857,5.524c-3.042,2.458-4.927,6.196-4.927,10.334v9.712h49.096
			v-9.712C709.511,88.168,707.627,84.43,704.584,81.972z M684.963,40.649c7.896,0,14.319,6.423,14.319,14.319v4.042l0.896,0.111
			c3.57,0.447,6.264,3.497,6.264,7.097c0,2.162-0.965,4.187-2.646,5.555l-0.656,0.534l0.401,0.746
			c0.561,1.036,0.855,2.209,0.855,3.394c0,1.598-0.53,3.119-1.498,4.368c-1.113-0.644-2.329-1.146-3.639-1.453l-7.137-1.68v-2.537
			c3.091-2.231,5.114-5.854,5.114-9.949v-9.205h-1.652c-2.926,0-5.519-1.755-6.605-4.472l-0.257-0.643h-2.294l-0.996,1.661
			c-1.278,2.13-3.614,3.454-6.099,3.454h-6.646v9.205c0,1.167,0.175,2.292,0.48,3.363c-1.504-0.892-2.525-2.514-2.525-4.386v-5.164
			v-0.903v-3.14l0,0C670.644,47.072,677.068,40.649,684.963,40.649z M674.735,80.507l5.114-1.204V76.34
			c1.56,0.719,3.287,1.131,5.114,1.131s3.556-0.412,5.114-1.131v2.963l5.114,1.204v2.077c0,3.948-3.212,7.16-7.16,7.16h-6.137
			c-3.948,0-7.159-3.212-7.159-7.16L674.735,80.507L674.735,80.507L674.735,80.507z M675.578,69.289c-0.06,0,0.066-0.016,0.01-0.018
			c-0.545-1.25-0.853-2.625-0.853-4.074v-7.16h4.6c3.198,0,6.207-1.704,7.854-4.447l0.28-0.467c1.509,2.897,4.429,4.767,7.724,4.905
			v7.169c0,5.64-4.589,10.229-10.229,10.229c-3.337,0-6.294-1.522-8.163-4.001 M663.484,66.22c0-3.201,2.132-5.963,5.114-6.85v4.805
			c0,3.43,2.428,6.302,5.653,6.997c0.881,1.572,2.099,2.926,3.552,3.975v2.537l-7.137,1.68c-1.31,0.308-2.526,0.809-3.639,1.453
			c-0.968-1.25-1.498-2.771-1.498-4.368c0-1.185,0.296-2.358,0.855-3.394l0.401-0.746l-0.656-0.534
			C664.449,70.407,663.484,68.382,663.484,66.22z M669.622,99.973h-7.16v-1.591c0.604,0.352,1.297,0.569,2.046,0.569h5.114V99.973z
			 M698.26,95.882v4.091h-26.594v-4.091h-2.045v1.022h-5.114c-1.129,0-2.046-0.917-2.046-2.045v-2.553
			c0-5.248,3.566-9.751,8.674-10.953l1.554-0.365v1.596c0,5.076,4.131,9.206,9.206,9.206h6.137c5.075,0,9.206-4.13,9.206-9.206
			v-1.596l1.554,0.366c5.107,1.202,8.674,5.706,8.674,10.952v2.553c0,1.128-0.917,2.045-2.046,2.045h-5.113v-1.022H698.26
			L698.26,95.882z M707.465,99.973h-7.159V98.95h5.114c0.748,0,1.44-0.217,2.045-0.569V99.973z"/>
	</g>
</g>
<g id="XMLID_144_">
	<g>
		<g>
			<path fill="#4A9ACA" d="M571.07,176.857c-1.684-0.889-5.666-3.145-7.502-4.801v-4.193c5.726-3.37,9.674-9.221,11.053-16.379
				c3.695-0.744,6.316-4.331,6.316-7.577c0-3.007-2.216-5.103-5.79-5.647v-3.002c0.03-0.903,0.26-12.336-6.937-19.825
				c-3.992-4.156-9.45-6.263-16.222-6.263c-6.789,0-12.256,2.111-16.25,6.275c-7.178,7.482-6.94,18.885-6.908,19.813v3.002
				c-3.574,0.545-5.79,2.641-5.79,5.648c0,3.245,2.621,6.832,6.316,7.576c1.379,7.158,5.327,13.008,11.053,16.379v4.193
				c-1.838,1.657-5.824,3.916-7.505,4.804c-19.099,6.212-19.505,17.671-19.513,18.157c0,0.01,0,0.021,0,0.031v4.825
				c0,1.065,0.863,1.93,1.93,1.93h73.335c1.065,0,1.93-0.864,1.93-1.93v-4.835C590.584,194.548,590.301,183.014,571.07,176.857z
				 M575.147,142.181c0.985,0.229,1.931,0.713,1.931,1.726c0,1.139-0.814,2.479-1.964,3.243
				C575.134,146.706,575.147,142.181,575.147,142.181z M526.901,143.907c0-1.013,0.944-1.496,1.93-1.726
				c0,0,0.014,4.524,0.033,4.969C527.714,146.386,526.901,145.045,526.901,143.907z M538.524,118.116
				c3.237-3.375,7.768-5.087,13.465-5.087c5.671,0,10.188,1.703,13.423,5.061c4.599,4.773,5.611,11.795,5.825,15.145
				c-10.877-0.638-19.014-6.282-19.097-6.34c-0.589-0.418-1.361-0.471-2.002-0.14c-0.642,0.331-1.044,0.992-1.044,1.714
				c0,0.354-0.538,1.026-2.055,1.75c-1.526,0.729-3.704,1.367-6.475,1.896c-2.942,0.562-5.917,0.875-7.826,1.035
				C532.954,129.782,533.964,122.869,538.524,118.116z M532.924,149.408c-0.155-1.249-0.234-2.45-0.234-3.57v-8.81
				c1.966-0.156,5.246-0.483,8.563-1.116c5.538-1.055,9.074-2.572,10.685-4.601c3.329,1.913,10.456,5.344,19.35,5.793v8.733
				c0,1.12-0.079,2.321-0.234,3.57c-0.976,7.088-4.773,12.798-10.423,15.666c-2.606,1.321-5.514,1.992-8.642,1.992
				c-3.127,0-6.034-0.671-8.641-1.991C537.699,162.206,533.9,156.496,532.924,149.408z M559.708,169.65v2.449
				c-0.654,0.659-2.004,1.871-3.806,2.721c-2.577,1.234-5.239,1.24-7.838-0.005c-1.796-0.847-3.143-2.057-3.796-2.716v-2.449
				c2.42,0.846,5.005,1.275,7.72,1.275S557.289,170.496,559.708,169.65z M517.251,197.944v-2.854
				c0.013-0.197,0.201-2.424,2.193-5.207c3.563-4.979,10.017-7.859,14.803-9.4c0.103-0.033,5.242-2.732,8.025-4.957
				c0.663,0.596,1.546,1.295,2.606,1.945l-2.44,7.319c-0.133,0.396-0.133,0.824,0,1.221l3.978,11.934H517.251z M550.485,197.944
				l-4.182-12.544l2.107-6.323c1.179,0.353,2.377,0.532,3.578,0.532c1.203,0,2.401-0.18,3.578-0.531l2.107,6.322l-4.182,12.544
				H550.485z M586.727,197.944h-29.166l3.979-11.935c0.133-0.396,0.133-0.824,0-1.22l-2.44-7.321c1.06-0.65,1.942-1.35,2.605-1.943
				c2.783,2.225,7.929,4.926,8.036,4.959c8.721,2.764,12.88,6.62,14.833,9.37c2.001,2.817,2.146,5.071,2.153,5.22V197.944z"/>
			<rect x="564.534" y="189.259" fill="#4A9ACA" width="13.509" height="3.859"/>
		</g>
	</g>
</g>
<text transform="matrix(1 0 0 1 279.4385 113.7949)"><tspan x="0" y="0" fill="#2A557C" font-family="'OpenSans-Bold'" font-size="44.4077">API</tspan><tspan x="-31.137" y="18" fill="#2A557C" font-family="'OpenSans-Bold'" font-size="15">DOCUMENTATION</tspan></text>
<g>
	<g>
		
			<line fill="none" stroke="#4A9ACA" stroke-width="5" stroke-miterlimit="10" x1="135.688" y1="115.974" x2="139.688" y2="115.974"/>
		
			<line fill="none" stroke="#4A9ACA" stroke-width="5" stroke-miterlimit="10" stroke-dasharray="8,4" x1="143.688" y1="115.974" x2="177.688" y2="115.974"/>
		
			<line fill="none" stroke="#4A9ACA" stroke-width="5" stroke-miterlimit="10" x1="179.688" y1="115.974" x2="184.688" y2="115.974"/>
		<g>
			<polygon fill="#4A9ACA" points="179.688,132.178 207.751,115.976 179.688,99.77 			"/>
		</g>
	</g>
</g>
<g>
	<g>
		
			<line fill="none" stroke="#4A9ACA" stroke-width="5" stroke-miterlimit="10" x1="499.688" y1="115.974" x2="494.688" y2="115.974"/>
		
			<line fill="none" stroke="#4A9ACA" stroke-width="5" stroke-miterlimit="10" stroke-dasharray="8,4" x1="491.688" y1="115.974" x2="457.688" y2="115.974"/>
		
			<line fill="none" stroke="#4A9ACA" stroke-width="5" stroke-miterlimit="10" x1="455.688" y1="115.974" x2="450.688" y2="115.974"/>
		<g>
			<polygon fill="#4A9ACA" points="455.688,99.77 427.625,115.973 455.688,132.178 			"/>
		</g>
	</g>
</g>
<text transform="matrix(1 0 0 1 6.3018 244.7944)"><tspan x="0" y="0" fill="#2A557C" font-family="'OpenSans-Bold'" font-size="15">DOCUMENTATION</tspan><tspan x="16.831" y="18" fill="#2A557C" font-family="'OpenSans-Bold'" font-size="15">WRITER TEAM</tspan></text>
<text transform="matrix(1 0 0 1 530.0161 244.7944)"><tspan x="0" y="0" fill="#2A557C" font-family="'OpenSans-Bold'" font-size="15">DOCUMENTATION</tspan><tspan x="34.588" y="18" fill="#2A557C" font-family="'OpenSans-Bold'" font-size="15">READERS</tspan></text>
</svg>
